<?xml version="1.0" encoding="UTF-8"?>
<svg id="Layer_2" data-name="Layer 2" xmlns="http://www.w3.org/2000/svg" viewBox="0 0 85.08 57.04">
  <defs>
    <style>
      .cls-1 {
        fill: #303231;
      }

      .cls-2 {
        fill: #efa022;
      }
    </style>
  </defs>
  <g id="Layer_1-2" data-name="Layer 1">
    <g>
      <path class="cls-1" d="M84.73,26.28h0c-3.59-9.64-10.7-17.48-20.01-22.07C55.72-.22,45.77-1.18,35.92,1.46c-12.5,3.05-21.22,14.16-21.22,27.04,0,1.18.08,2.37.23,3.54-1.37-1.35-2.47-3.03-3.19-4.97-1.21-3.23-4.01-4.85-7.14-4.13-1.63.38-3.09,1.51-3.9,3.03-.79,1.47-.91,3.19-.34,4.72,3.59,9.64,10.7,17.48,20.01,22.07,5.78,2.85,11.85,4.29,17.94,4.29,3.47,0,6.95-.47,10.38-1.41,12.57-2.84,21.68-14.24,21.68-27.15,0-1.2-.08-2.39-.23-3.58,1.38,1.35,2.48,3.04,3.21,4.99,1.21,3.23,4.01,4.85,7.14,4.13,1.63-.38,3.09-1.51,3.9-3.03.79-1.47.91-3.19.34-4.72ZM47.9,28.49c0,2.96-2.41,5.36-5.36,5.36s-5.36-2.41-5.36-5.36,2.41-5.36,5.36-5.36,5.36,2.41,5.36,5.36Z"/>
      <path class="cls-2" d="M80.98,27.68c-3.25-8.71-9.72-15.78-18.03-19.88-8.16-4.03-17.04-4.89-26.04-2.47-10.45,2.53-18.21,11.94-18.21,23.16,0,3.96.97,7.69,2.68,10.98-6.35-.91-11.22-5.22-13.39-11.01-.44-1.19-1.19-1.93-2.49-1.63-.92.21-1.82,1.32-1.4,2.46,3.25,8.71,9.72,15.78,18.03,19.88,8.02,3.96,16.91,4.98,25.59,2.59,10.67-2.37,18.65-11.88,18.65-23.26,0-3.97-.98-7.71-2.69-11,6.37.9,11.25,5.22,13.41,11.01.44,1.19,1.19,1.93,2.49,1.63.92-.21,1.82-1.32,1.4-2.46ZM42.53,37.86c-5.17,0-9.36-4.19-9.36-9.36s4.19-9.36,9.36-9.36,9.36,4.19,9.36,9.36-4.19,9.36-9.36,9.36Z"/>
    </g>
  </g>
</svg>