<?xml version="1.0" encoding="UTF-8" standalone="no"?>
<!-- Created using Krita: https://krita.org -->

<svg
   width="245.76pt"
   height="245.76pt"
   viewBox="0 0 245.76 245.76"
   version="1.1"
   id="svg1"
   sodipodi:docname="logo.svg"
   inkscape:version="1.4.2 (f4327f4, 2025-05-13)"
   xmlns:inkscape="http://www.inkscape.org/namespaces/inkscape"
   xmlns:sodipodi="http://sodipodi.sourceforge.net/DTD/sodipodi-0.dtd"
   xmlns="http://www.w3.org/2000/svg"
   xmlns:svg="http://www.w3.org/2000/svg">
  <sodipodi:namedview
     id="namedview1"
     pagecolor="#ffffff"
     bordercolor="#000000"
     borderopacity="0.25"
     inkscape:showpageshadow="2"
     inkscape:pageopacity="0.0"
     inkscape:pagecheckerboard="0"
     inkscape:deskcolor="#d1d1d1"
     inkscape:document-units="pt"
     inkscape:zoom="1.4142136"
     inkscape:cx="-224.15285"
     inkscape:cy="318.5516"
     inkscape:window-width="3440"
     inkscape:window-height="1377"
     inkscape:window-x="1016"
     inkscape:window-y="-8"
     inkscape:window-maximized="1"
     inkscape:current-layer="svg1" />
  <defs
     id="defs1" />
  <g
     id="shape0"
     style="opacity:1">
    <path
       style="baseline-shift:baseline;display:inline;overflow:visible;vector-effect:none;fill:#424242;fill-opacity:0;stroke-linecap:round;stroke-linejoin:round;paint-order:stroke fill markers;enable-background:accumulate;stop-color:#000000;stop-opacity:1"
       d="m 132.32422,47.101562 c -4.96862,0.139981 -9.96096,0.636581 -14.9668,1.449219 -4.51372,0.424357 -8.9316,1.228687 -13.23437,2.416016 -4.271253,1.178786 -8.420027,2.704693 -12.429691,4.572265 a 7.50075,7.50075 0 0 0 -0.289062,0.142579 l -0.798828,0.414062 a 7.50075,7.50075 0 0 0 -0.269532,0.296875 c -7.779591,3.900941 -14.780019,9.133618 -20.873046,15.611328 -6.257709,6.652572 -11.190943,14.480282 -14.753907,23.300781 -2.205655,5.460333 -3.767253,11.054843 -4.660156,16.748043 -0.887506,5.65973 -1.130862,11.30077 -0.71875,16.88086 0.401885,5.44288 1.390049,10.79496 2.935547,16.02344 -3.530824,-1.8005 -6.907653,-4.01952 -10.060547,-7.09961 -3.801564,-3.71365 -7.149147,-8.76136 -9.912109,-15.375 a 7.50075,7.50075 0 0 0 -0.01563,-0.0391 c -1.272654,-2.99755 -3.993027,-5.77405 -7.095703,-7.02734 -3.078739,-1.2436 -6.919148,-1.13008 -9.904297,0.11328 -3.10435,1.25873 -5.8727449,4.06443 -7.1035159,7.11133 -1.2403518,3.07067 -1.2641055,7.09193 0.1699219,10.23632 2.906774,6.81694 6.406706,13.25676 10.507812,19.28321 4.123646,6.05964 8.777958,11.65034 13.945313,16.75 5.173914,5.10611 10.83597,9.67525 16.962891,13.6914 6.134032,4.02067 12.666439,7.42883 19.568359,10.2168 12.368781,4.99625 25.141327,7.72514 38.167965,8.12695 13.01856,0.40117 25.92148,-1.51665 38.55274,-5.70508 l -0.43555,0.13086 0.4707,-0.125 a 7.50075,7.50075 0 0 0 0.23047,-0.0645 c 1.2931,-0.38784 2.5952,-0.80823 3.90625,-1.25781 1.18927,-0.40727 2.29268,-1.01613 3.40821,-1.59375 -0.32487,0.0788 -0.65024,0.20595 -0.95899,0.23047 a 7.50075,7.50075 0 0 0 1.0586,-0.27735 c 0.0243,-0.0127 0.05,-0.0224 0.0742,-0.0351 0.0623,-0.0179 0.13867,-0.0178 0.19922,-0.0371 a 7.50075,7.50075 0 0 0 1.23047,-0.32227 c 8.49101,-3.93844 16.13022,-9.32805 22.78906,-16.05859 6.7723,-6.84669 12.06926,-15.02642 15.82422,-24.32227 2.14932,-5.32085 3.68835,-10.76484 4.59375,-16.29883 0.90268,-5.51034 1.1836,-11.00955 0.83008,-16.45703 a 7.50075,7.50075 0 0 0 0,-0.002 c -0.31601,-4.85576 -1.15074,-9.61512 -2.37305,-14.28516 2.45178,1.53807 4.836,3.31856 7.12305,5.55274 a 7.50075,7.50075 0 0 0 0.002,0.002 c 3.81016,3.72165 7.19477,8.79778 10.01954,15.45117 1.24332,2.92845 3.88579,5.72564 7.00195,6.98438 3.14127,1.2689 6.93232,1.01936 9.79492,-0.19141 a 7.50075,7.50075 0 0 0 0.01,-0.004 c 3.06451,-1.3011 5.81332,-4.09501 7.0625,-7.1875 1.25364,-3.10367 1.14589,-6.98635 -0.12696,-9.98438 -2.99443,-7.05303 -6.6059,-13.67085 -10.83008,-19.826171 -4.20671,-6.128293 -8.92222,-11.731 -14.13281,-16.78125 a 7.50075,7.50075 0 0 0 -0.002,-0.002 c -5.18914,-5.028057 -10.80703,-9.504407 -16.83789,-13.410157 -6.01541,-3.895742 -12.33549,-7.183587 -18.93555,-9.849609 -9.43258,-3.810209 -19.24498,-6.304026 -29.36914,-7.462891 -5.08605,-0.582159 -10.20627,-0.799254 -15.35156,-0.654297 z m 0.41992,14.992188 c 4.44253,-0.125203 8.84744,0.06343 13.22461,0.564453 8.80246,1.007575 17.26529,3.158979 25.45898,6.46875 5.71333,2.307838 11.17235,5.146692 16.39844,8.53125 5.21064,3.374551 10.05482,7.233567 14.55469,11.59375 0.72508,0.702792 1.3727,1.498252 2.07617,2.226563 -2.47629,-1.523873 -5.02775,-2.887687 -7.69922,-3.966797 -3.57903,-1.445713 -7.39251,-2.537672 -11.41797,-3.298828 a 7.50075,7.50075 0 0 0 -8.02148,10.880859 c 2.02868,3.829674 3.62503,7.79646 4.80078,11.93164 1.17394,4.12823 1.89854,8.34921 2.18164,12.69922 0.27807,4.28713 0.0621,8.62786 -0.66406,13.06055 a 7.50075,7.50075 0 0 0 0,0.002 c -0.7216,4.4105 -1.94763,8.76532 -3.69922,13.10156 -3.07286,7.60722 -7.2443,13.99819 -12.58008,19.39258 -5.39524,5.4531 -11.43397,9.71246 -18.23047,12.89453 -0.10947,0.0402 -0.22866,0.0355 -0.33593,0.0801 0.0743,-0.0308 0.19781,-0.0227 0.27734,-0.0508 -0.0502,0.0234 -0.0962,0.0529 -0.14649,0.0762 l 0.61329,-0.16016 c 1.38134,-0.36732 3.18919,-0.44353 4.57421,0.11719 a 7.50075,7.50075 0 0 0 -6.69921,0.53516 c -0.66255,0.4013 -1.33428,0.71623 -2.04883,0.96093 a 7.50075,7.50075 0 0 0 -0.004,0 c -1.1117,0.38127 -2.21012,0.7324 -3.29492,1.0586 l -0.29883,0.0801 a 7.50075,7.50075 0 0 0 -0.43555,0.13086 c -11.04196,3.66143 -22.11506,5.29406 -33.36914,4.94726 -11.247808,-0.34694 -22.202149,-2.6738 -33.013668,-7.04101 -6.01412,-2.42935 -11.659642,-5.37741 -16.96289,-8.85352 -5.31008,-3.48072 -10.185505,-7.41588 -14.650391,-11.82227 -0.648748,-0.64024 -1.219757,-1.35383 -1.849609,-2.01171 2.588894,1.6144 5.269245,3.04506 8.078125,4.17968 4.719011,1.90621 9.69134,3.18179 14.849609,3.83008 a 7.50075,7.50075 0 0 0 7.470703,-11.11719 c -2.183526,-3.88251 -3.904686,-7.93895 -5.18164,-12.20507 -1.279909,-4.27583 -2.081031,-8.62261 -2.410157,-13.08008 -0.325567,-4.40825 -0.137195,-8.87899 0.580079,-13.45313 0.712157,-4.54075 1.953622,-9.01279 3.748046,-13.45507 2.922177,-7.234165 6.829253,-13.386542 11.771485,-18.64063 a 7.50075,7.50075 0 0 0 0.002,0 c 5.020096,-5.337039 10.623066,-9.506595 16.925781,-12.626953 a 7.50075,7.50075 0 0 0 3.626954,-3.91211 l -0.966798,2.390625 -1.662109,0.863282 -0.289062,0.140625 c 3.257179,-1.517088 6.615219,-2.752544 10.087889,-3.710938 3.44152,-0.94967 6.98388,-1.596883 10.64844,-1.941406 a 7.50075,7.50075 0 0 0 0.5332,-0.06836 c 4.52727,-0.756341 9.00669,-1.197063 13.44922,-1.322266 z m -9.02734,27.074219 c -4.40087,0.114275 -8.70087,1.027659 -12.70703,2.728515 -4.02238,1.707752 -7.67774,4.19353 -10.82618,7.314453 a 7.50075,7.50075 0 0 0 -0.002,0 c -3.249966,3.221873 -5.788675,7.106003 -7.531249,11.419923 -1.725208,4.27096 -2.573388,8.79693 -2.457032,13.3418 0.112798,4.40143 1.02338,8.70219 2.72461,12.70898 1.700873,4.00641 4.161428,7.65027 7.248051,10.78906 3.20174,3.25564 7.08229,5.7956 11.39843,7.53907 4.26989,1.72477 8.79619,2.57134 13.3418,2.45312 4.41036,-0.11449 8.71558,-1.03682 12.70898,-2.76367 a 7.50075,7.50075 0 0 0 0,-0.002 c 3.96398,-1.71502 7.57358,-4.17411 10.69727,-7.2461 3.24232,-3.18873 5.77644,-7.03491 7.50195,-11.30664 1.74288,-4.31469 2.61173,-8.8728 2.50977,-13.44922 -0.0984,-4.4106 -0.97745,-8.7122 -2.64453,-12.71484 a 7.50075,7.50075 0 0 0 0,-0.002 c -1.6737,-4.01593 -4.13092,-7.67074 -7.22461,-10.816411 -3.18811,-3.24212 -7.03272,-5.777123 -11.30274,-7.501953 -4.31627,-1.74352 -8.87103,-2.610631 -13.43554,-2.492187 z m 0.39062,14.996091 c 2.46007,-0.0638 4.85983,0.36702 7.42774,1.4043 2.48936,1.00555 4.48645,2.34373 6.22461,4.11133 a 7.50075,7.50075 0 0 0 0.002,0 c 1.83321,1.86385 3.14061,3.83651 4.07031,6.0664 0.93466,2.2441 1.43646,4.60915 1.49609,7.28321 0.0559,2.50862 -0.38567,4.93281 -1.42187,7.49804 -1.00672,2.49228 -2.34347,4.48989 -4.11133,6.22852 -1.8857,1.85449 -3.88738,3.20199 -6.13281,4.17383 -2.21834,0.95927 -4.53192,1.47133 -7.14648,1.53906 -2.47804,0.0644 -4.84451,-0.36159 -7.33399,-1.36719 -2.56804,-1.03733 -4.5949,-2.39397 -6.32031,-4.14844 -1.8403,-1.8714 -3.17326,-3.86798 -4.13477,-6.13281 a 7.50075,7.50075 0 0 0 -0.002,0 c -0.9614,-2.26433 -1.46991,-4.61015 -1.53711,-7.23242 -0.0635,-2.47891 0.36405,-4.84678 1.37109,-7.33984 1.0363,-2.56546 2.40199,-4.61633 4.1836,-6.38282 1.8837,-1.86723 3.87998,-3.2073 6.1289,-4.1621 2.2649,-0.96159 4.6128,-1.47094 7.23633,-1.53907 z"
       id="path3" />
    <path
       style="baseline-shift:baseline;display:inline;overflow:visible;fill:#00ff9f;stroke-linecap:round;stroke-linejoin:round;paint-order:stroke fill markers;enable-background:accumulate;stop-color:#000000;stop-opacity:1;stroke-width:16;stroke-dasharray:none;stroke:#424242;stroke-opacity:0.79710144"
       d="m 230.87975,118.01937 c 0.61181,1.44104 0.63746,2.85669 0.0768,4.24473 -0.5854,1.44923 -1.59909,2.47956 -3.04011,3.09137 -1.44122,0.60958 -2.79604,0.65819 -4.06354,0.14619 -1.32869,-0.53671 -2.29746,-1.52391 -2.90817,-2.96234 -3.13089,-7.37442 -7.02552,-13.33604 -11.6835,-17.88581 -4.65706,-4.54939 -9.76166,-7.94545 -15.31288,-10.18781 -3.07927,-1.24384 -6.41316,-2.20443 -10.00222,-2.88307 2.27137,4.28782 4.06695,8.7523 5.38618,13.39212 1.31979,4.64113 2.13669,9.39513 2.4535,14.26312 0.31589,4.86762 0.0671,9.78755 -0.74736,14.7594 -0.8135,4.97224 -2.19637,9.87216 -4.14682,14.70071 -3.41391,8.45153 -8.14741,15.7377 -14.20145,21.85824 -6.05497,6.12016 -12.92593,10.96302 -20.61286,14.5285 -0.14485,0.0115 -0.281,0.0442 -0.40931,0.0975 -0.12831,0.0533 -0.25225,0.0558 -0.37279,0.007 -1.11372,0.67458 -2.28149,1.2213 -3.50434,1.64007 -1.2219,0.41906 -2.43281,0.80826 -3.63177,1.16787 l -0.47116,0.12514 c -11.83661,3.92493 -23.82399,5.70002 -35.96031,5.32604 -12.137227,-0.37438 -24.000927,-2.90241 -35.591077,-7.58414 -6.45802,-2.60866 -12.54629,-5.78721 -18.26493,-9.5356 -5.7185,-3.74844 -10.98757,-8.00078 -15.80697,-12.75703 -4.81939,-4.75625 -9.15663,-9.96685 -13.01169,-15.63181 -3.85514,-5.66501 -7.14987,-11.71764 -9.88422,-18.15805 -0.63737,-1.3791 -0.65125,-2.82322 -0.0417,-4.33225 0.58522,-1.44877 1.5865,-2.44906 3.00384,-3.00088 1.44169,-0.61209 2.8556,-0.63812 4.24178,-0.0782 1.3885,0.56087 2.38881,1.5621 3.0009,3.00379 3.07062,7.35007 6.93413,13.29956 11.59066,17.84841 4.6564,4.54888 9.79183,7.95726 15.4061,10.22509 4.10513,1.65823 8.42993,2.77292 12.9744,3.34407 -2.45265,-4.36104 -4.39627,-8.93773 -5.83075,-13.73013 -1.43451,-4.79231 -2.33622,-9.68561 -2.70497,-14.67973 -0.36884,-4.99417 -0.15218,-10.0497 0.65021,-15.16663 0.80253,-5.11698 2.20365,-10.15103 4.20369,-15.10234 3.24257,-8.02733 7.66379,-15.01784 13.26376,-20.97117 5.59991,-5.95346 11.95363,-10.68927 19.06149,-14.20824 l 0.073,-0.18081 0.79813,-0.41421 c 3.63342,-1.69233 7.386287,-3.07325 11.258247,-4.14184 3.87215,-1.0685 7.8525,-1.79456 11.94164,-2.179 9.71213,-1.62254 19.30009,-1.89318 28.76331,-0.81 9.46331,1.08322 18.60099,3.4046 27.41413,6.96459 6.15669,2.48693 12.04587,5.55066 17.66662,9.19081 5.62075,3.64015 10.85253,7.80803 15.69703,12.50215 4.84412,4.69506 9.23393,9.90871 13.16852,15.64058 3.93421,5.73279 7.30447,11.90322 10.11093,18.5135 m -116.50687,30.03576 c 3.37968,1.36519 6.82587,2.0024 10.33769,1.91107 3.5128,-0.091 6.8213,-0.80841 9.92747,-2.1516 3.1052,-1.34347 5.91033,-3.247 8.41537,-5.71058 2.50509,-2.46368 4.44064,-5.38638 5.80676,-8.76838 1.38954,-3.43996 2.04482,-6.93115 1.96589,-10.47367 -0.079,-3.54233 -0.76893,-6.87523 -2.0698,-9.9986 -1.30183,-3.12365 -3.18383,-5.93777 -5.64787,-8.443 -2.46313,-2.50486 -5.38499,-4.44007 -8.76468,-5.80526 -3.44209,-1.3904 -6.91937,-2.04006 -10.43166,-1.94892 -3.5122,0.0912 -6.83622,0.80238 -9.97175,2.1336 -3.13565,1.33128 -5.96144,3.24404 -8.47751,5.73812 -2.51605,2.4943 -4.46887,5.46136 -5.85841,8.90131 -1.366127,3.38201 -2.004137,6.82884 -1.914227,10.34073 0.09,3.51185 0.80061,6.83551 2.131927,9.97107 1.33119,3.13562 3.2287,5.9559 5.69216,8.461 2.46358,2.50505 5.41655,4.45271 8.85864,5.84311"
       id="path4" />
  </g>
  <rect
     style="fill:#000000;stroke-width:0.75"
     id="rect2"
     width="1.0606601"
     height="0.26516503"
     x="117.98904"
     y="123.89478" />
</svg>
